#format: frame checksums
#version: 2
#hash: MD5
#tb 0: 1001/30000
#media_type 0: video
#codec_id 0: rawvideo
#dimensions 0: 1920x1080
#sar 0: 1/1
#tb 1: 1/48000
#media_type 1: audio
#codec_id 1: pcm_s16le
#sample_rate 1: 48000
#channel_layout 1: 3
#channel_layout_name 1: stereo
#stream#, dts,        pts, duration,     size, hash
0,          0,          0,        1,  3110400, e9454409af76038dbe56e834921d2fa8
1,          0,          0,     1024,     4096, 620f0b67a91f7f74151bc5be745b7110
1,       1024,       1024,     1024,     4096, 4963ab641585142fbac06502873fb6d3
0,          1,          1,        1,  3110400, 37aa620e494d22ba248feea9a5a869a0
1,       2048,       2048,     1024,     4096, 80649ae10d2587264fcb43c7dc25e61b
1,       3072,       3072,     1024,     4096, 01ec94c18060be08988e8b9b1c9de822
0,          2,          2,        1,  3110400, 7b8be9619e4e1d618ab1ed85aff3957b
1,       4096,       4096,     1024,     4096, 3f8342da3124e22b89211c2f233eb5b2
0,          3,          3,        1,  3110400, 756a4551420853bc3ae444e6b86169f3
1,       5120,       5120,     1024,     4096, 4832d1a3f7d8aaceb0489c1ca0706d31
1,       6144,       6144,     1024,     4096, 7e89f1e8318ed54d81e4efe3c679515f
0,          4,          4,        1,  3110400, 94a93c1669a96ebf41a7258177849396
1,       7168,       7168,     1024,     4096, d73468c68e92c9e2939eb30d66a45bc2
0,          5,          5,        1,  3110400, 5d1c49d3f43cd472683e4a039e376af5
1,       8192,       8192,     1024,     4096, 72e1020c1bb961cb1c177f97e427edb9
1,       9216,       9216,     1024,     4096, 1a4773af7080bd904a3b14c12a8028fa
0,          6,          6,        1,  3110400, e0e88cc34b0a9d7963cddf554a3909f0
1,      10240,      10240,     1024,     4096, d39ae1809032c4807efe41520302bd37
0,          7,          7,        1,  3110400, 1f464f2427aa3842224803b6d67154f8
1,      11264,      11264,     1024,     4096, e26af86998d1a9579127a97dbe45890b
1,      12288,      12288,     1024,     4096, 148e1ab102c1c62d9018095c7e934eea
0,          8,          8,        1,  3110400, e5d610b8e53203b5ccb01877acb3ac56
1,      13312,      13312,     1024,     4096, 96582c941184ad967e9e91198775e61f
1,      14336,      14336,     1024,     4096, 8d2371bb1524d9d007ae44519b55a055
0,          9,          9,        1,  3110400, d1363fbdffbb85a0affe660bfd09b98c
1,      15360,      15360,     1024,     4096, 6034c9e409d8dcdfd032b44f631e2362
0,         10,         10,        1,  3110400, 130bb4c17e963b092a717325498c06c3
1,      16384,      16384,     1024,     4096, 3649e9edc65a042c4c913c06c3f3bff7
1,      17408,      17408,     1024,     4096, a4cdb0c4bed48d1f7c4918e5590a542d
0,         11,         11,        1,  3110400, a3cb7a37fef5d8a49815dd15970c1f3d
1,      18432,      18432,     1024,     4096, a130e8ba9a47df0c76edf5c3ece5762f
0,         12,         12,        1,  3110400, 7dc4a4334fa9bb61f2ad56b3d059b3f7
1,      19456,      19456,     1024,     4096, cf76a132c205c29a0b7042599973fda4
1,      20480,      20480,     1024,     4096, b9b7d819599bb6d7cd53cc1bc0810ca7
0,         13,         13,        1,  3110400, ccda106ec5899787c3bc8679ee052854
1,      21504,      21504,     1024,     4096, 3d0d6ef8318a94416a56108248e6cad3
0,         14,         14,        1,  3110400, 4254c7b01a67a0810bf234ba7b1f59d0
1,      22528,      22528,     1024,     4096, a8a082b4c521d2e7fc990f54e3580a9e
1,      23552,      23552,     1024,     4096, 60b36c268bc98093f35a7c90c64b507c
0,         15,         15,        1,  3110400, 6c0acd9781cfecaf9a10fe91f8d6ec41
1,      24576,      24576,     1024,     4096, c5211b49eb51cea4c16079eb54df3d12
1,      25600,      25600,     1024,     4096, dddd55a31e8a65110a89de1af67861b0
0,         16,         16,        1,  3110400, 2a9d5db0bc2f54e2c66834db64386bb7
1,      26624,      26624,     1024,     4096, 0c220f1d405bb463469b54fa126a2c41
0,         17,         17,        1,  3110400, 0140f515be87da399061764050d15b16
1,      27648,      27648,     1024,     4096, 11d740234a9a4dd28e3191e258fc8e3b
1,      28672,      28672,     1024,     4096, e456943c722a9807669f57776dcb8c5d
0,         18,         18,        1,  3110400, cad554fe221fbd8ee848facebd7b24d2
1,      29696,      29696,     1024,     4096, 3c13165d648f46c3e3e699b874da372a
0,         19,         19,        1,  3110400, 1e8474911cb1bd831808dc2beba540c0
1,      30720,      30720,     1024,     4096, 7e7a46e3360f884507c95f640cd6f532
1,      31744,      31744,     1024,     4096, 420d047ee4d55b7af2d97c5116e25d37
0,         20,         20,        1,  3110400, f39c483fbf3c598c38cf543abad2c03c
1,      32768,      32768,     1024,     4096, b3334bcd2ed3b2ab32ac13c24a8d1322
0,         21,         21,        1,  3110400, 3b21171a003827a203c0c5853c36893e
1,      33792,      33792,     1024,     4096, 1472898e0d4fafd52fc0adb789e06987
1,      34816,      34816,     1024,     4096, f3e7c33d92578fa5eb90933491106c37
0,         22,         22,        1,  3110400, 40e8733f93c468cb58c3921c80f81c68
1,      35840,      35840,     1024,     4096, 7d7f8e8f542be9291b7895472f8cf0a7
0,         23,         23,        1,  3110400, a2d716f215af7d778bd605decae201dd
1,      36864,      36864,     1024,     4096, 66e2e35d40beb6e1df30d4d180661d4b
1,      37888,      37888,     1024,     4096, 8fc0c16fc3ec5db47e437263b429406b
0,         24,         24,        1,  3110400, e6fb8d3f1c9747f185b50eded67ff0ab
1,      38912,      38912,     1024,     4096, dd6331f430abf41dade4e4a85784745f
1,      39936,      39936,     1024,     4096, 5c693b37419fe43fb83b715d4f7083ec
0,         25,         25,        1,  3110400, fe4e0cf566674672ad043f24eae02e63
1,      40960,      40960,     1024,     4096, 9e13b054c07feac0fad601ed4823996e
0,         26,         26,        1,  3110400, f57d4d32012dfcb14a270bdc90812e5e
1,      41984,      41984,     1024,     4096, dbffea22781b35088859868189e270aa
1,      43008,      43008,     1024,     4096, 59f1a985d7a96273bf48be9dc8a7d4d2
0,         27,         27,        1,  3110400, fe7aa8c1754b9590fe75b783d4e126ed
1,      44032,      44032,     1024,     4096, b07e02d0bfecbde9b48e6e83952aa3c7
0,         28,         28,        1,  3110400, 29ae6e541021bf481c8937c37ac34570
1,      45056,      45056,     1024,     4096, d0dfca31885ac1d21fe42bb26e3b11ec
1,      46080,      46080,     1024,     4096, 5479670aea3a4d07a61b9edcc2113c7b
0,         29,         29,        1,  3110400, 211e0803b5a704c7ef1c36fc5c182710
1,      47104,      47104,     1024,     4096, 0118d7fc0d0f8462647f37aa6d82c8fc
0,         30,         30,        1,  3110400, a4ea3a4686d214ad54fcdce63f8c2dc0
1,      48128,      48128,     1024,     4096, cc2b22d4c7497accb6b194968b407e10
1,      49152,      49152,     1024,     4096, fe8d30c082a3608b8ccf5e3d6f4b0ddb
0,         31,         31,        1,  3110400, 8af971cf637609534ec59b6f29a3666e
1,      50176,      50176,     1024,     4096, ed15a6aa2d87395b47888f744f41df30
1,      51200,      51200,     1024,     4096, 8d4971ee25d274822cceaa00cc8df1a1
0,         32,         32,        1,  3110400, 8cfe93dfd76e4f97cc04a145bb559af5
1,      52224,      52224,     1024,     4096, 799f1c9cac6c3cedaac80cc6b26df827
0,         33,         33,        1,  3110400, 691fe61398016f767ea7ba781ef72953
1,      53248,      53248,     1024,     4096, 40cbefbb455231c0f21af129e2504395
1,      54272,      54272,     1024,     4096, 05eb1731cb93ff68815e92f0a528d4d7
0,         34,         34,        1,  3110400, 7eaf5bc5e942f8218f46c9c505d7b58c
1,      55296,      55296,     1024,     4096, de96fa062c59b6b3b88731e60e02d040
0,         35,         35,        1,  3110400, feacc8282186935e310ec2dccbb79239
1,      56320,      56320,     1024,     4096, 14d38d89079c1b7801987c5315477d11
1,      57344,      57344,     1024,     4096, 9a0029ae7fc7e029402ec29536288cff
0,         36,         36,        1,  3110400, a5dfb5c4c23e647e2c77dd117e4ed714
1,      58368,      58368,     1024,     4096, 83925a6ebf953e6b711d3042c95ffe51
0,         37,         37,        1,  3110400, da9306c2872788ba2a587eab7f597f13
1,      59392,      59392,     1024,     4096, 5b332b22a2a8ae72cbf8154d2cfd9b5d
1,      60416,      60416,     1024,     4096, 8dcd5041b49036e43f74819439a6db63
0,         38,         38,        1,  3110400, 19d14a655aa02cc2767afd9ed9bc2ff4
1,      61440,      61440,     1024,     4096, 90ea3ac56003b4f1c0242a611746b76a
0,         39,         39,        1,  3110400, 4d9e6455fb71d5cd511dddf894b4f7d8
1,      62464,      62464,     1024,     4096, 6ed9f815739e6e3b8ed125688f693d5f
1,      63488,      63488,     1024,     4096, e056b91f4875029af3c29a26e37380a1
0,         40,         40,        1,  3110400, 052c32c00bc1b40d5270f4b5c4d34d6b
1,      64512,      64512,     1024,     4096, 36ff82cb34ffc9ea60b1fbc8d3edd9f1
1,      65536,      65536,     1024,     4096, 975c2d6080532645be510241d52b788c
0,         41,         41,        1,  3110400, 645e0c3eb8599c2cc712a97cbae9d1d3
1,      66560,      66560,     1024,     4096, 9a53c620f19d5bb733c8bd068137ba3a
0,         42,         42,        1,  3110400, d0b3fe092511fed0e384ffad85f6ae3c
1,      67584,      67584,     1024,     4096, 482365611c86663b70a13511d8194282
1,      68608,      68608,     1024,     4096, 4f9002718a7103a4b15b96e9e08a2cfd
0,         43,         43,        1,  3110400, 131c090f806658ffbb4949b3310a6348
1,      69632,      69632,     1024,     4096, 2301e3336164fe298b85006b0e7dc0b8
0,         44,         44,        1,  3110400, 71e8042ed01a1bbe971417d87685dda1
1,      70656,      70656,     1024,     4096, d8b4c47bb3f58a70109d70edaea9916b
1,      71680,      71680,     1024,     4096, ff87ca54ad112c083b1cc25043429410
0,         45,         45,        1,  3110400, 948cc8d7eceb2e512c8660063143557b
1,      72704,      72704,     1024,     4096, eee9c7fd3c78681fcfcdf40ed7ee2c6b
0,         46,         46,        1,  3110400, 8b580d4f620af52ac0a5702197f5e9d6
1,      73728,      73728,     1024,     4096, d05a2d810e2c201cff9e115c48cff977
1,      74752,      74752,     1024,     4096, 5ef14640b86062c99427e0177b33657c
0,         47,         47,        1,  3110400, a30bfc0727c6abb477751969c1b1450c
1,      75776,      75776,     1024,     4096, 92398dd17af6362aa81fe8a9aad0af01
1,      76800,      76800,     1024,     4096, 131b910e0af30e5250726b3d4a5f4f10
0,         48,         48,        1,  3110400, 28381142e60e9011d0cd75e7881c1956
1,      77824,      77824,     1024,     4096, 50157f3541acd42d2c460e125a9f2393
0,         49,         49,        1,  3110400, 1b4bdae40d76ed7625f85da7c5289360
1,      78848,      78848,     1024,     4096, 266fd18529d95b7347e9a019271056fc
1,      79872,      79872,     1024,     4096, 2f9a347ce750501f2e4d0a36c95bc8b0
0,         50,         50,        1,  3110400, 354fb545adf6082dc57b8077ba1466ad
1,      80896,      80896,     1024,     4096, 0f8b0626ef01d0e941914d7810945aa1
0,         51,         51,        1,  3110400, c969f21be0dcbef6b232d3f0a9e3f189
1,      81920,      81920,     1024,     4096, 51da6b0c3d5daddb8f4635d692b0e8ba
1,      82944,      82944,     1024,     4096, aac8a7152103243dabd94e2a37caf53f
0,         52,         52,        1,  3110400, 4ff19ab89ebe466e8ce3df0ba25b6b0a
1,      83968,      83968,     1024,     4096, 50c8d5b0a373c07ecb66ca33e087a299
0,         53,         53,        1,  3110400, 49f601932c19ae8d405771e9cfd4f9e8
1,      84992,      84992,     1024,     4096, 2abd975868c9805fa456a08f1ab16c91
1,      86016,      86016,     1024,     4096, 56309326bc80a6216b048934713db907
0,         54,         54,        1,  3110400, c75d2221327d5953b013fdc9d36dbcd3
1,      87040,      87040,     1024,     4096, 470fd4997793f53ad2b21b47c6b98bb1
1,      88064,      88064,     1024,     4096, 1aed57e8ba33350711e1ff668c906953
0,         55,         55,        1,  3110400, 6c8b8c6012b6ac36c4c2a3ab5629ec61
1,      89088,      89088,     1024,     4096, 9e910446a3b8d30f270c05aca011704d
0,         56,         56,        1,  3110400, 44a05705ad5cb730e7244c36b4f94771
1,      90112,      90112,     1024,     4096, af6c036d66dd5bb5c250f16207173180
1,      91136,      91136,     1024,     4096, de76d587f349fe597e65cb1f51bdcc34
0,         57,         57,        1,  3110400, 0ee53224814c84224525181aacbd9a39
1,      92160,      92160,     1024,     4096, 7abab5bffebfcc801a11f6b7905a13c9
0,         58,         58,        1,  3110400, cd7797aa75c96a2a71e939ea6b677310
1,      93184,      93184,     1024,     4096, 3567caaaea75b1cda5920fd6dbf2a016
1,      94208,      94208,     1024,     4096, 2a6848418d829a273b85620e5b59cabe
0,         59,         59,        1,  3110400, ac2207156da29fd33ca1c66224445bbc
1,      95232,      95232,     1024,     4096, 79d0c213acefa2bc00de4fd455b34df9
0,         60,         60,        1,  3110400, 1669c959bd2b6f245cc83ea00d0de83f
1,      96256,      96256,     1024,     4096, 267414473e0e7c75c7c1dde7be001762
1,      97280,      97280,     1024,     4096, 893107ddb969cbc25a5aa8c564559836
0,         61,         61,        1,  3110400, a74e6586842a4c877fa9a123e7b8ef94
1,      98304,      98304,     1024,     4096, 1555a7117d5254afef3e36b1d0a9edd2
0,         62,         62,        1,  3110400, 5af4edbf8a77ead17f4891cbac6d72be
1,      99328,      99328,     1024,     4096, dd92c3241e45d54cc072fc0307d1850c
1,     100352,     100352,     1024,     4096, 95c55b1767ddea9af80edbb32e2b4dbc
0,         63,         63,        1,  3110400, 52598cb5f3cb75bc401370118bcb2c49
1,     101376,     101376,     1024,     4096, 1d133e7a83f0cf96a6e9cee90d17975a
1,     102400,     102400,     1024,     4096, b71b82a4abcde640a46fcc3bd6930d51
0,         64,         64,        1,  3110400, d44aa05de89e71b3af23de9afbb2a3b1
1,     103424,     103424,     1024,     4096, 57697c6f8e32dda304b77b2881b5011d
0,         65,         65,        1,  3110400, 161fd1ff8b477a137e113ce7e6ac26f7
1,     104448,     104448,     1024,     4096, 592725ee5ee2adfc02e8c189f402a3d9
1,     105472,     105472,     1024,     4096, 2b1073734ea08c0cfeeaab15ad04aa60
0,         66,         66,        1,  3110400, b9b5efaf5f74954897882b0f09a5c088
1,     106496,     106496,     1024,     4096, 18f2a5daef2293e690fe0915127cb795
0,         67,         67,        1,  3110400, 1405f3d5e75c2ffd390b46f7def70478
1,     107520,     107520,     1024,     4096, 4fa75ff788019d99f6ab0ad2ee5cc3d4
1,     108544,     108544,     1024,     4096, d40f1172149821d84130990d5acd9395
0,         68,         68,        1,  3110400, 3bf19eda056d5fc609662bf5ca8e3b33
1,     109568,     109568,     1024,     4096, edae14a39d1034cfce5655337df2206e
0,         69,         69,        1,  3110400, 8ba1925dc6b38a340e51aa234b5ff4df
1,     110592,     110592,     1024,     4096, 574a6a3b427314c2eb48226d2d7ce67d
1,     111616,     111616,     1024,     4096, ebf13ab2795c091f15b9086d5bf2e11e
0,         70,         70,        1,  3110400, 301aecbe3f8bf3831d6de540a568abbc
1,     112640,     112640,     1024,     4096, 074c63c81345804c7437de33cb5e355f
1,     113664,     113664,     1024,     4096, 58da9edb5e278e292cebebf6b26435b0
0,         71,         71,        1,  3110400, 388565f088710aeb0f50ecdf8ef0ee86
1,     114688,     114688,     1024,     4096, ce75fd079a21e0637900ac491c4fbc36
0,         72,         72,        1,  3110400, df27196ff8da5085c58979deeae9c4a1
1,     115712,     115712,     1024,     4096, 92153c14aeabfb4b4546c340201202b0
1,     116736,     116736,     1024,     4096, f02e8d23ee0ca80713b4458873ce724f
0,         73,         73,        1,  3110400, 750226c84aae270449e0a20751218217
1,     117760,     117760,     1024,     4096, 0adec04349d269f7dde27c59c7077954
0,         74,         74,        1,  3110400, 076d4246e5494e6d5cf8ffb09be3a751
1,     118784,     118784,     1024,     4096, 4408d6824ca6c2080fd76c1ab840382c
1,     119808,     119808,     1024,     4096, c3603730a05cff479148d9b69b7ed2e8
0,         75,         75,        1,  3110400, 9f626289f18a3482628b511840deaa10
1,     120832,     120832,     1024,     4096, 25a6af5ef98aae3c40610e58ca65b8a9
0,         76,         76,        1,  3110400, f925e3ff4bda9962a313b6ac21a201f1
1,     121856,     121856,     1024,     4096, 5ad875e4437059157f0f3a5ec911e741
1,     122880,     122880,     1024,     4096, cfc06fdc755579be7440fca797d81191
0,         77,         77,        1,  3110400, 1d893861545e804944c519e580204988
1,     123904,     123904,     1024,     4096, 7c783d7b973bb8048eeaa568297cfa35
0,         78,         78,        1,  3110400, 4d42fca73082fde38020a8fec0b27db2
1,     124928,     124928,     1024,     4096, cae22b99b2c6fea527fb5c038d3765f8
1,     125952,     125952,     1024,     4096, fc4b5ef5a5a28102bf782b8732fc2993
0,         79,         79,        1,  3110400, ed88335480ef00aedcf73c3a8712705c
1,     126976,     126976,     1024,     4096, e278968277ccc64992ba6bb73ad9909d
1,     128000,     128000,     1024,     4096, e2eb81d30fe7fa901eaf295fca8bc8b8
0,         80,         80,        1,  3110400, 968ba4c93f80cb8c6fbfaccb765c3d70
1,     129024,     129024,     1024,     4096, 5a9b99c0639bd80ef7f20971590e23c7
0,         81,         81,        1,  3110400, 01ef52b0a18f46556ba9e00d1b0c77af
1,     130048,     130048,     1024,     4096, 2765d109f09efa2f2661dfd2e666f25c
1,     131072,     131072,     1024,     4096, 1ff52d5870cd667388fe69f48e228fc6
0,         82,         82,        1,  3110400, 54582f2ae6878b37cbd1b5c576fd09c7
1,     132096,     132096,     1024,     4096, 3612470a58bb5eab26239fbd3d097866
0,         83,         83,        1,  3110400, fec6585d244257b52c90cfa19b22fd7c
1,     133120,     133120,     1024,     4096, be170a1e3eba4c53b0e2fc8b795c7767
1,     134144,     134144,     1024,     4096, abb85ab4987c50e05ecab0e831d53fd6
0,         84,         84,        1,  3110400, be1e0237c5d8bab98aa75a91e0d4bd9b
1,     135168,     135168,     1024,     4096, 2e9b5c17dcaf77f171544c0eee6cf191
0,         85,         85,        1,  3110400, 1138a9f316d1a2a9ae3c42d777561595
1,     136192,     136192,     1024,     4096, 54c1c5d9c706e1999b2243828736c98d
1,     137216,     137216,     1024,     4096, 7b482f85e123981e8eb37c364b2f4bbe
0,         86,         86,        1,  3110400, 62da42e9e8643ec9b1299bbeaffa4be5
1,     138240,     138240,     1024,     4096, 0be223967283ac3a0029fad458176155
1,     139264,     139264,     1024,     4096, 8ec0c4054d484ebf8d68e32c3ffb5924
0,         87,         87,        1,  3110400, 55fc4dcfb7f8bab37518884fc6747416
1,     140288,     140288,     1024,     4096, 0308762a4362acbf1c9e1e62e5055880
0,         88,         88,        1,  3110400, 51be69793bfae3fe078d04e8dee3a48b
1,     141312,     141312,     1024,     4096, 56a18f795b25ef93d27a53a9f6a87ec9
1,     142336,     142336,     1024,     4096, ad46ed8c3ac23b79bbd066e43b77f4e6
0,         89,         89,        1,  3110400, 363b794880a2cc06e5be4626c6847c19
1,     143360,     143360,     1024,     4096, 62719a7d4521ac82957ce3f52ba21854
0,         90,         90,        1,  3110400, cd1d585cf9cb68f72f7d6a0ec9ab96ab
1,     144384,     144384,     1024,     4096, 8854128aa8377ad5e52af990d4642ef5
1,     145408,     145408,     1024,     4096, 38827bf7a129f92062b90fcf03ba80c1
0,         91,         91,        1,  3110400, 138f8686ee7294bf4af072cee7043f52
1,     146432,     146432,     1024,     4096, 24d4e112b275116dcb512e6b283487e3
0,         92,         92,        1,  3110400, 137c1bdc2bb6fa1e181f84b09c14e0b6
1,     147456,     147456,     1024,     4096, 03c374d9d72df87f99427fe1045be8da
1,     148480,     148480,     1024,     4096, c0c5a8fd24d5a9f535118ec266468976
0,         93,         93,        1,  3110400, e7bc46739c46ec886fc5059af72f772a
1,     149504,     149504,     1024,     4096, 3381472e14c42a06cdcf35774a0b3a9a
1,     150528,     150528,     1024,     4096, 4c07a7a02831675a686c6f31e2809e4a
0,         94,         94,        1,  3110400, db4c2aa67c76573e4880b029bef59c8d
1,     151552,     151552,     1024,     4096, adde928f734ffe6c07446c9d70214f74
0,         95,         95,        1,  3110400, 3a287113ad2196420a0474243bd1813d
1,     152576,     152576,     1024,     4096, f1ff82fec1ef096090acbf60212b2b69
1,     153600,     153600,     1024,     4096, e3b271991cc2cd4fdb56616443c9f3e8
0,         96,         96,        1,  3110400, d3ed803ca1984f021802e6c7364cb57f
1,     154624,     154624,     1024,     4096, 025c3272bfb9f24ab687bc818d57d853
0,         97,         97,        1,  3110400, 776d99c2973261c12e978fe9fe5c5794
1,     155648,     155648,     1024,     4096, 8bb2de059194408962be4dfdd88775fc
1,     156672,     156672,     1024,     4096, eb61bcbcc9897d01f5645a0662dfbd6d
0,         98,         98,        1,  3110400, 62ee2ec1261db8544ded9db8c4442f15
1,     157696,     157696,     1024,     4096, 48a3c897183538de9920e94417f54733
0,         99,         99,        1,  3110400, 1bfabc7ab3701e112e76955a449431d7
1,     158720,     158720,     1024,     4096, ffe159d137e51d8fd4d5b3639df563a3
1,     159744,     159744,     1024,     4096, 7702e58e4ae075b6e12e863f8c5d908e
0,        100,        100,        1,  3110400, e03dfc70c25b77fc47ea42ddb8d5da5c
1,     160768,     160768,     1024,     4096, 2e2b497643e1b6bf13dd5e585ecd9092
0,        101,        101,        1,  3110400, b0f0c308b49cb82fad3b4995cb60b6a1
1,     161792,     161792,     1024,     4096, fcce76ebba5166966db792dfc77fda3d
1,     162816,     162816,     1024,     4096, ccf5a819e00ce8c5197ae5b2b827f3e5
0,        102,        102,        1,  3110400, 627c888ea94dabff2aaf96c800a85f7a
1,     163840,     163840,     1024,     4096, 2385c9e205cfdd5e0b2ac54e9ef0f525
1,     164864,     164864,     1024,     4096, 40214ba3f9bdc1bbb7d59e1fdb9def2f
0,        103,        103,        1,  3110400, f2231eac6e5885f61f470a5c6b65ceea
1,     165888,     165888,     1024,     4096, 52516e860beca0af0d80f79266c761cc
0,        104,        104,        1,  3110400, ec873def59cde7c114fe27ba1b2c25a6
1,     166912,     166912,     1024,     4096, a25848945235fd70d1021b9a92dafd8d
1,     167936,     167936,     1024,     4096, 38c7a26c7a545df5fa1721ee3e820309
0,        105,        105,        1,  3110400, 7a5e98b10b1f984b624bc6399a45dde2
1,     168960,     168960,     1024,     4096, 506d3c3b34f060a0516011ca237cb6a5
0,        106,        106,        1,  3110400, 180d7b9ef69a8ee32e5fcc3b9579c11f
1,     169984,     169984,     1024,     4096, 2ef3cd56dfc870a251bb97f4d474be84
1,     171008,     171008,     1024,     4096, 383c82e600ebadddd0467cc3a9575f3e
0,        107,        107,        1,  3110400, 8c0107e3bda4c993131b361d598b4b4d
1,     172032,     172032,     1024,     4096, b99763cdc1d5412f89e7d1fcb3bd1c35
0,        108,        108,        1,  3110400, 31e1ea32c3200a41814b5890b81c5211
1,     173056,     173056,     1024,     4096, 7b3ecb91c63f7f86d6e96f305b3bd507
1,     174080,     174080,     1024,     4096, 6945621a1ee0fbc68e7db786bc837f53
0,        109,        109,        1,  3110400, f6223221be5136d03c87333c7f2113c5
1,     175104,     175104,     1024,     4096, fb1de71ab0d840699834d583fbd3468e
1,     176128,     176128,     1024,     4096, 2a3b2d299d87f5b982156ae740fb7b46
0,        110,        110,        1,  3110400, 325d0fb65e35826aebb0f80fc34f426f
1,     177152,     177152,     1024,     4096, 6462952e8555172110c37c579d45f63c
0,        111,        111,        1,  3110400, 1328e8c69419fe1c44fc6cfa1f648839
1,     178176,     178176,     1024,     4096, 279537a0668d254a6710c935f2a7b8d7
1,     179200,     179200,     1024,     4096, 286a27fee95bf8773ee8ea03621e9502
0,        112,        112,        1,  3110400, b234f9aab6965e136bb283a2ad0fbb68
1,     180224,     180224,     1024,     4096, 343413b110fe48674dddeba071440707
0,        113,        113,        1,  3110400, 3961ef43173c69a28d2196f4fa11d37a
1,     181248,     181248,     1024,     4096, 66265d80629369fc9fffddbbe6ef104d
1,     182272,     182272,     1024,     4096, 3ff193da4d2168f97f17841f9669d33e
0,        114,        114,        1,  3110400, 943c6dd42254d346d81fd55bfad60573
1,     183296,     183296,     1024,     4096, dd4074398b101502c29009687686e78d
0,        115,        115,        1,  3110400, 0028c32eacb6f4d77cb98cf856d266e4
1,     184320,     184320,     1024,     4096, 562be444896543f259527081c7795597
1,     185344,     185344,     1024,     4096, 145b4b260f2393ec1e3464d79c87fe8e
0,        116,        116,        1,  3110400, f478fe49fed80b92eaa182aa8e794077
1,     186368,     186368,     1024,     4096, 6884ebc820bb41e61dc54a87bd55011e
0,        117,        117,        1,  3110400, 9a52c061c135bd75ee317fe48a2cddf8
1,     187392,     187392,     1024,     4096, d2d8b2fd7a140a3f32d5649f8e507637
1,     188416,     188416,     1024,     4096, 767071a409e0b07bd2cdb250c3c89607
0,        118,        118,        1,  3110400, c327b95c8afa716f7719603d2b65679b
1,     189440,     189440,     1024,     4096, 64c4eed5e1b85e0728b1b0e3de30ffa1
1,     190464,     190464,     1024,     4096, 11ffef7e85d9925a4032b3bcd9740e20
0,        119,        119,        1,  3110400, edd3b4c4fa157940b9c252a7d94e6f55
1,     191488,     191488,     1024,     4096, 99893421a493664be17085567e160280
0,        120,        120,        1,  3110400, 5ccdffe7356a73d2d11eb7767ddfa396
1,     192512,     192512,     1024,     4096, ea422077bc582aef4af5bf3ca3aa062a
1,     193536,     193536,     1024,     4096, a9e7ab9c45faf39f3cd1eee69c95d647
0,        121,        121,        1,  3110400, 7c4d8083656581ccc666597da5559a46
1,     194560,     194560,     1024,     4096, fc19b6642df3b85c7ebe684e705bf29d
0,        122,        122,        1,  3110400, 28cae533418f9a5d62869cbed0be384c
1,     195584,     195584,     1024,     4096, 39420620aea9d61b240691dada0f3063
1,     196608,     196608,     1024,     4096, 5ad516a55655cdc2a3348badc2c7e5a1
0,        123,        123,        1,  3110400, e9cf527a059c80461fd507bab4817069
1,     197632,     197632,     1024,     4096, fa4f3d45c1cfc88088b4cd6f2924184d
0,        124,        124,        1,  3110400, a2f2518b8a25932afbb78523e8da289e
1,     198656,     198656,     1024,     4096, 689be1d6f84b136537df11b8ed22b540
1,     199680,     199680,     1024,     4096, 9612dad6c93c75b6911f21997f2f7aee
0,        125,        125,        1,  3110400, 8fcbddce7f2a6c3bc380ad4cec17e51c
1,     200704,     200704,     1024,     4096, defe4b66e5dd9c6a527aeb9ebec04cdf
1,     201728,     201728,     1024,     4096, 0c39b71be01611d6be02b796aec2c6de
0,        126,        126,        1,  3110400, 32ff7b550d09821b2b1eb64c288559ba
1,     202752,     202752,     1024,     4096, 2150a3d6fdec61cd587b83217f9bbb2c
0,        127,        127,        1,  3110400, 1eb4e9050a6657ab9290ac58ed3aa93f
1,     203776,     203776,     1024,     4096, 4be35b36d46ca56b778ae0afdd1e4200
1,     204800,     204800,     1024,     4096, fb79d3d9d0e4d590882cbd023bbcd00d
0,        128,        128,        1,  3110400, e45fd52e9ec3ad2d42740dd7cb5e971b
1,     205824,     205824,     1024,     4096, d4295a4a32d647a04ec0eab639c0d9fc
0,        129,        129,        1,  3110400, d625b970a797e37e465d9319471d40c3
1,     206848,     206848,     1024,     4096, f03478b7689af9bdf6e67d271a4b3114
1,     207872,     207872,     1024,     4096, 9fd97010278dc9147d8b73be9aacfb35
0,        130,        130,        1,  3110400, b98e4a8fd994915a3dde3def26a9b171
1,     208896,     208896,     1024,     4096, 2b9670707ad661b2125620d2156f11f6
0,        131,        131,        1,  3110400, a99b759bdfcf7f7cee8f1ee84ca2d66d
1,     209920,     209920,     1024,     4096, e1b2afbfcb5edb8e4b88ae9c08848c30
1,     210944,     210944,     1024,     4096, 58c8914fd4ec12bfe13f388050b251e8
0,        132,        132,        1,  3110400, 5439cd9643a76d21e5f1deb0aa4000a2
1,     211968,     211968,     1024,     4096, 4d8e0b0d4cd31f98eb4ca9922bba1497
1,     212992,     212992,     1024,     4096, 02b1c362c2f1939fa41a4cc8d4b25d6a
0,        133,        133,        1,  3110400, 383640e375fa6b46bba21acd556f0efd
1,     214016,     214016,     1024,     4096, 10d3b076171713e9978c67515fdd4304
0,        134,        134,        1,  3110400, e91ba9ef2595fbee20fb0f1d5e0b92ba
1,     215040,     215040,     1024,     4096, 726450c85dbd838bc00c6866d4c10786
1,     216064,     216064,     1024,     4096, 3479045f30a97faaed2f241478ea0447
0,        135,        135,        1,  3110400, 9c8ce07f22215b8450b01e82fc085b3d
1,     217088,     217088,     1024,     4096, 63d5ca0f8d7e086dfae54e86a75f8971
0,        136,        136,        1,  3110400, 4f11b553eaaa1feb682842a1123e1b43
1,     218112,     218112,     1024,     4096, 41953b97d8f2d3e5c05827c670e3c562
1,     219136,     219136,     1024,     4096, 50709f01bf8dbe8e40f5b414211e7dbe
0,        137,        137,        1,  3110400, 32e8823643ce4cb0154482611f4de51d
1,     220160,     220160,     1024,     4096, 03d813116d70fed14987e17ebcaeed3e
0,        138,        138,        1,  3110400, 207ee505f0cfb54a3fd1fd5256ba906a
1,     221184,     221184,     1024,     4096, d695e2905aac1dee39a8f35e3a4b7fed
1,     222208,     222208,     1024,     4096, 35c5c7a9cfe5cfb08d3dd269aec9b901
0,        139,        139,        1,  3110400, f95de0e1f3cd2559b6a81a6dbe53ed5c
1,     223232,     223232,     1024,     4096, 2a4f3699775e0d67651c4c40913c9059
0,        140,        140,        1,  3110400, 3c47b1ea481bdae7b7730084407fd22a
1,     224256,     224256,     1024,     4096, bb561814ffb5b76a1faf7df4375c233e
1,     225280,     225280,     1024,     4096, a3c632a0d54e07e3928aec8ef169fd11
0,        141,        141,        1,  3110400, fbec533f0cb4d79185e09c9917329473
1,     226304,     226304,     1024,     4096, a805c35e91615f17669130ec58191b75
1,     227328,     227328,     1024,     4096, 0858806663f6430219b68df7ff83a932
0,        142,        142,        1,  3110400, 5b9f1cf510bc72d42772a78d400d9831
1,     228352,     228352,     1024,     4096, 59339810dea47a705ab9e0913f7a88d5
0,        143,        143,        1,  3110400, 6b031f180439e753b6b0e36de46dc1a5
1,     229376,     229376,     1024,     4096, 6d9cdd81e0ba85ad4e00c34e2a096611
1,     230400,     230400,     1024,     4096, cd6dd8dd0dc5198b7bf0b45d4ecc2608
0,        144,        144,        1,  3110400, c09870b1e13efa8b685d89ebd781e835
1,     231424,     231424,     1024,     4096, c2dd972eb34af27a210bcfa3e5f8da93
0,        145,        145,        1,  3110400, 439c6cc6f7157eaf046e06d9e55ddf69
1,     232448,     232448,     1024,     4096, 0993bc45c9582048d6982beeaec6b72e
1,     233472,     233472,     1024,     4096, ae93c593fd775ae997c43eef40fe8d0e
0,        146,        146,        1,  3110400, 7d5520c184c7bf3f175eea3526deb7a8
